<?xml version="1.0" encoding="utf-8"?>
<svg id="master-artboard" viewBox="0 0 64 64" version="1.1" xmlns="http://www.w3.org/2000/svg" x="0px" y="0px" style="enable-background:new 0 0 336 235.2;" width="64px" height="64px"><defs><radialGradient id="gradient-0" gradientUnits="objectBoundingBox" cx="0.5" cy="0.5" r="0.5">
                <stop offset="0" style="stop-color: #ab376b"/>
                <stop offset="1" style="stop-color: #5e1e3b"/>
              </radialGradient><style id="ee-google-fonts">@import url(https://fonts.googleapis.com/css?family=Jacques+Francois+Shadow:400);</style></defs>





















































































































































<path d="M 13.899999618530273 -2.6599998474121094 C 15.859999656677246 -2.6599998474121094 17.65999984741211 -2.386667251586914 19.299999237060547 -1.8400001525878906 C 20.940000534057617 -1.2933330535888672 22.41666603088379 -0.9400005340576172 23.729999542236328 -0.7800006866455078 C 23.003334045410156 1.7666664123535156 22.976667404174805 4.510000228881836 23.649999618530273 7.450000762939453 C 22.950000762939453 8.036666870117188 22.149999618530273 8.376667022705078 21.25 8.469999313354492 C 21.136667251586914 8.209999084472656 20.940000534057617 7.666666030883789 20.65999984741211 6.840000152587891 C 20.3799991607666 6.013334274291992 20.113332748413086 5.333333969116211 19.860000610351562 4.799999237060547 C 19.606666564941406 4.266666412353516 19.260000228881836 3.6599998474121094 18.81999969482422 2.979999542236328 C 18.373332977294922 2.293333053588867 17.78333282470703 1.75 17.049999237060547 1.3500003814697266 C 16.323333740234375 0.9433326721191406 15.486666679382324 0.6633338928222656 14.539999961853027 0.5100002288818359 C 13.15999984741211 0.6366672515869141 12.09333324432373 1.063333511352539 11.34000015258789 1.7900009155273438 C 10.58666706085205 2.510000228881836 10.210000038146973 3.446666717529297 10.210000038146973 4.600000381469727 C 10.210000038146973 5.773332595825195 10.513333320617676 6.739999771118164 11.119999885559082 7.5 C 11.720000267028809 8.260000228881836 12.5 8.826665878295898 13.460000038146973 9.200000762939453 C 14.426666259765625 9.573333740234375 15.489999771118164 9.899999618530273 16.649999618530273 10.180000305175781 C 17.816667556762695 10.459999084472656 18.97333335876465 10.803333282470703 20.1200008392334 11.209999084472656 C 21.266666412353516 11.610000610351562 22.323333740234375 12.136667251586914 23.290000915527344 12.790000915527344 C 24.25 13.436666488647461 25.030000686645508 14.40333366394043 25.6299991607666 15.6899995803833 C 26.236665725708008 16.976665496826172 26.540000915527344 18.543333053588867 26.540000915527344 20.389999389648438 C 26.540000915527344 22.630001068115234 25.889999389648438 24.55666732788086 24.59000015258789 26.170000076293945 C 23.290000915527344 27.78333282470703 21.760000228881836 28.940000534057617 20 29.639999389648438 C 18.233333587646484 30.33333396911621 16.426666259765625 30.68000030517578 14.579999923706055 30.68000030517578 C 10.520000457763672 30.68000030517578 6.5 29.786666870117188 2.5199999809265137 28 C 2.6066665649414062 26.233333587646484 2.6500000953674316 25.149999618530273 2.6500000953674316 24.75 C 2.6500000953674316 22.536666870117188 2.43666672706604 20.15999984741211 2.009999990463257 17.619998931884766 C 3.243333339691162 17.03333282470703 4.616666793823242 17.006668090820312 6.130000114440918 17.540000915527344 C 6.636666774749756 20.639999389648438 7.616666793823242 23.016666412353516 9.069999694824219 24.670000076293945 C 10.529999732971191 26.323333740234375 12.126667022705078 27.246665954589844 13.859999656677246 27.440000534057617 C 15.486666679382324 27.33333396911621 16.74333381652832 26.803333282470703 17.6299991607666 25.850000381469727 C 18.510000228881836 24.90333366394043 18.950000762939453 23.696666717529297 18.950000762939453 22.229999542236328 C 18.950000762939453 21.003334045410156 18.663333892822266 19.959999084472656 18.09000015258789 19.100000381469727 C 17.516666412353516 18.246665954589844 16.75666618347168 17.586666107177734 15.8100004196167 17.119998931884766 C 14.869999885559082 16.64666748046875 13.850000381469727 16.21666717529297 12.75 15.829999923706055 C 11.643333435058594 15.449999809265137 10.529999732971191 15.043333053588867 9.40999984741211 14.609999656677246 C 8.289999961853027 14.183333396911621 7.263333320617676 13.670000076293945 6.329999923706055 13.069999694824219 C 5.389999866485596 12.463333129882812 4.633333206176758 11.620000839233398 4.059999942779541 10.540000915527344 C 3.486666679382324 9.459999084472656 3.200000047683716 8.149999618530273 3.200000047683716 6.6100006103515625 C 3.200000047683716 5.209999084472656 3.4233334064483643 3.956666946411133 3.869999885559082 2.8500003814697266 C 4.309999942779541 1.7433338165283203 4.889999866485596 0.8566665649414062 5.610000133514404 0.1900005340576172 C 6.329999923706055 -0.4833335876464844 7.170000076293945 -1.0466670989990234 8.130000114440918 -1.5 C 9.09666633605957 -1.9466667175292969 10.053333282470703 -2.2533340454101562 11 -2.4200000762939453 C 11.953332901000977 -2.5799999237060547 12.920000076293945 -2.6599998474121094 13.899999618530273 -2.6599998474121094 M 13.899999618530273 -1.8199996948242188 C 12.75333309173584 -1.8199996948242188 11.640000343322754 -1.686666488647461 10.5600004196167 -1.4200000762939453 C 9.479999542236328 -1.1533336639404297 8.430000305175781 -0.7199993133544922 7.409999847412109 -0.12000083923339844 C 6.396666526794434 0.4799995422363281 5.579999923706055 1.3600006103515625 4.960000038146973 2.520000457763672 C 4.3466668128967285 3.686666488647461 4.039999961853027 5.049999237060547 4.039999961853027 6.6100006103515625 C 4.039999961853027 7.989999771118164 4.326666831970215 9.173334121704102 4.900000095367432 10.15999984741211 C 5.473333358764648 11.15333366394043 6.230000019073486 11.923334121704102 7.170000076293945 12.469999313354492 C 8.103333473205566 13.016666412353516 9.130000114440918 13.5 10.25 13.920000076293945 C 11.376667022705078 14.333333015441895 12.489999771118164 14.75333309173584 13.59000015258789 15.180000305175781 C 14.6899995803833 15.600000381469727 15.710000038146973 16.07666778564453 16.649999618530273 16.610000610351562 C 17.59666633605957 17.143333435058594 18.356666564941406 17.88666534423828 18.93000030517578 18.84000015258789 C 19.503334045410156 19.786666870117188 19.790000915527344 20.916667938232422 19.790000915527344 22.229999542236328 C 19.790000915527344 24.049999237060547 19.209999084472656 25.520000457763672 18.049999237060547 26.639999389648438 C 16.883333206176758 27.760000228881836 15.233333587646484 28.31999969482422 13.100000381469727 28.31999969482422 C 11.053333282470703 28.31999969482422 9.146666526794434 27.46666717529297 7.380000114440918 25.760000228881836 C 5.619999885559082 24.053333282470703 4.460000038146973 21.496665954589844 3.9000000953674316 18.09000015258789 C 3.626666784286499 17.90999984741211 3.303333282470703 17.90999984741211 2.930000066757202 18.09000015258789 C 3.303333282470703 20.23666763305664 3.490000009536743 22.456666946411133 3.490000009536743 24.75 C 3.490000009536743 25.39666748046875 3.4600000381469727 26.30666732788086 3.4000000953674316 27.479999542236328 C 6.793333530426025 29.053333282470703 10.026666641235352 29.84000015258789 13.100000381469727 29.84000015258789 C 15.646666526794434 29.84000015258789 18 29.08333396911621 20.15999984741211 27.56999969482422 C 22.31999969482422 26.06333351135254 23.399999618530273 23.950000762939453 23.399999618530273 21.229999542236328 C 23.399999618530273 19.683334350585938 23.100000381469727 18.373332977294922 22.5 17.299999237060547 C 21.893333435058594 16.226665496826172 21.106666564941406 15.390000343322754 20.139999389648438 14.789999961853027 C 19.16666603088379 14.1899995803833 18.100000381469727 13.670000076293945 16.940000534057617 13.229999542236328 C 15.779999732971191 12.790000915527344 14.623332977294922 12.376667022705078 13.470000267028809 11.989999771118164 C 12.323333740234375 11.59666633605957 11.270000457763672 11.163333892822266 10.3100004196167 10.690000534057617 C 9.34333324432373 10.209999084472656 8.5600004196167 9.530000686645508 7.960000038146973 8.649999618530273 C 7.353333473205566 7.763334274291992 7.050000190734863 6.693332672119141 7.050000190734863 5.440000534057617 C 7.050000190734863 3.6733341217041016 7.646666526794434 2.263334274291992 8.84000015258789 1.2099990844726562 C 10.026666641235352 0.15666580200195312 11.713333129882812 -0.37000083923339844 13.899999618530273 -0.37000083923339844 C 17.706666946411133 -0.37000083923339844 20.3266658782959 2.263334274291992 21.760000228881836 7.530000686645508 C 22.18000030517578 7.59666633605957 22.47333335876465 7.5 22.639999389648438 7.239999771118164 C 22.18666648864746 3.906665802001953 21.200000762939453 1.563333511352539 19.68000030517578 0.20999908447265625 C 18.15333366394043 -1.1433334350585938 16.226667404174805 -1.8199996948242188 13.899999618530273 -1.8199996948242188 Z" transform="matrix(1.098319172859192, 0, 0, 1.098319172859192, -0.6041002869606018, 4.464601039886475)" style="fill: rgb(181, 63, 103); white-space: pre; color: rgb(181, 63, 103); fill-opacity: 1;"/><path d="M 10.869999885559082 0.5799999237060547 C 12.356666564941406 0.39999961853027344 13.930000305175781 0.3099994659423828 15.59000015258789 0.3099994659423828 C 17.40333366394043 0.3099994659423828 19.03333282470703 0.5966663360595703 20.479999542236328 1.1700000762939453 C 21.920000076293945 1.7433338165283203 23.086666107177734 2.479999542236328 23.979999542236328 3.3799991607666016 C 24.8799991607666 4.273332595825195 25.616666793823242 5.326665878295898 26.190000534057617 6.540000915527344 C 26.763334274291992 7.760000228881836 27.163333892822266 8.966667175292969 27.389999389648438 10.15999984741211 C 27.616666793823242 11.360000610351562 27.729999542236328 12.586666107177734 27.729999542236328 13.84000015258789 C 27.729999542236328 17.98666763305664 26.566667556762695 21.303333282470703 24.239999771118164 23.790000915527344 C 21.913333892822266 26.27666664123535 18.56333351135254 27.520000457763672 14.1899995803833 27.520000457763672 L 10.829999923706055 27.479999542236328 C 10.6899995803833 21.80666732788086 10.619999885559082 17.56999969482422 10.619999885559082 14.770000457763672 C 10.619999885559082 9.696666717529297 10.703332901000977 4.966667175292969 10.869999885559082 0.5799999237060547 M 15.279999732971191 29.84000015258789 C 10.699999809265137 29.84000015258789 6.12666654586792 29.893333435058594 1.559999942779541 30 C 1.2200000286102295 29.059999465942383 1.2200000286102295 28.18000030517578 1.559999942779541 27.360000610351562 C 4.526666641235352 27.059999465942383 6.023333549499512 26.656665802001953 6.050000190734863 26.149999618530273 C 6.2166666984558105 21.856666564941406 6.300000190734863 17.55666732788086 6.300000190734863 13.25 C 6.300000190734863 8.850000381469727 6.230000019073486 5.043333053588867 6.090000152587891 1.8299999237060547 C 6.063333511352539 1.323333740234375 4.539999961853027 0.9200000762939453 1.5199999809265137 0.6200008392333984 C 1.2866666316986084 -0.26000022888183594 1.3133333921432495 -1.1433334350585938 1.600000023841858 -2.030000686645508 C 3.2799999713897705 -2.0033340454101562 8.516666412353516 -1.989999771118164 17.309999465942383 -1.989999771118164 C 19.209999084472656 -1.989999771118164 20.956666946411133 -1.8733329772949219 22.549999237060547 -1.6399993896484375 C 24.143333435058594 -1.4066658020019531 25.766666412353516 -0.9366664886474609 27.420000076293945 -0.22999954223632812 C 29.073333740234375 0.4699993133544922 30.46666717529297 1.386667251586914 31.600000381469727 2.520000457763672 C 32.733333587646484 3.6599998474121094 33.65666580200195 5.193332672119141 34.369998931884766 7.120000839233398 C 35.08333206176758 9.046667098999023 35.439998626708984 11.303333282470703 35.439998626708984 13.890000343322754 C 35.439998626708984 16.350000381469727 35.02333450317383 18.529998779296875 34.189998626708984 20.43000030517578 C 33.356666564941406 22.329999923706055 32.266666412353516 23.860000610351562 30.920000076293945 25.020000457763672 C 29.573333740234375 26.18000030517578 27.989999771118164 27.133333206176758 26.170000076293945 27.8799991607666 C 24.350000381469727 28.626667022705078 22.55666732788086 29.139999389648438 20.790000915527344 29.420000076293945 C 19.030000686645508 29.700000762939453 17.19333267211914 29.84000015258789 15.279999732971191 29.84000015258789 M 14.029999732971191 1.3099994659423828 C 13.863333702087402 6.1100006103515625 13.779999732971191 10.59666633605957 13.779999732971191 14.770000457763672 C 13.779999732971191 18.156665802001953 13.83666706085205 22.126667022705078 13.949999809265137 26.68000030517578 C 18.25666618347168 26.573333740234375 21.489999771118164 25.363332748413086 23.649999618530273 23.049999237060547 C 25.809999465942383 20.743331909179688 26.889999389648438 17.67333221435547 26.889999389648438 13.84000015258789 C 26.889999389648438 12.35333251953125 26.709999084472656 10.930000305175781 26.350000381469727 9.569999694824219 C 25.996665954589844 8.209999084472656 25.43000030517578 6.886667251586914 24.649999618530273 5.600000381469727 C 23.8700008392334 4.313333511352539 22.733333587646484 3.270000457763672 21.239999771118164 2.469999313354492 C 19.739999771118164 1.6700000762939453 17.979999542236328 1.2433338165283203 15.960000038146973 1.1900005340576172 C 15.286666870117188 1.1900005340576172 14.643333435058594 1.2299995422363281 14.029999732971191 1.3099994659423828 M 2.130000114440918 29.1200008392334 C 5.070000171661377 29.040000915527344 8.966666221618652 29 13.819999694824219 29 C 15.5600004196167 29 17.239999771118164 28.866666793823242 18.860000610351562 28.600000381469727 C 20.479999542236328 28.33333396911621 22.123332977294922 27.843334197998047 23.790000915527344 27.1299991607666 C 25.456666946411133 26.4233341217041 26.899999618530273 25.523332595825195 28.1200008392334 24.43000030517578 C 29.33333396911621 23.336666107177734 30.33333396911621 21.880001068115234 31.1200008392334 20.060001373291016 C 31.906665802001953 18.239999771118164 32.29999923706055 16.166667938232422 32.29999923706055 13.84000015258789 C 32.29999923706055 3.8466663360595703 26.809999465942383 -1.1499996185302734 15.829999923706055 -1.1499996185302734 C 14.816666603088379 -1.1499996185302734 13.383333206176758 -1.1266670227050781 11.529999732971191 -1.0799999237060547 C 9.670000076293945 -1.0400009155273438 7.983333110809326 -1.0200004577636719 6.46999979019165 -1.0200004577636719 C 4.956666469573975 -1.0200004577636719 3.5233333110809326 -1.063333511352539 2.1700000762939453 -1.1499996185302734 C 2.06333327293396 -0.9033336639404297 2.06333327293396 -0.5799999237060547 2.1700000762939453 -0.18000030517578125 C 5.316666603088379 0.12000083923339844 6.9033331871032715 0.7766666412353516 6.929999828338623 1.7900009155273438 C 7.070000171661377 5.003334045410156 7.139999866485596 8.823333740234375 7.139999866485596 13.25 C 7.139999866485596 17.583332061767578 7.056666851043701 21.89666748046875 6.889999866485596 26.190000534057617 C 6.863333225250244 27.203332901000977 5.276666641235352 27.860000610351562 2.130000114440918 28.15999984741211 C 1.996666669845581 28.47333335876465 1.996666669845581 28.793333053588867 2.130000114440918 29.1200008392334 Z" transform="matrix(1.0025951862335205, 0, 0, 1.0025951862335205, 26.9141902923584, 32.19025421142578)" style="fill: rgb(181, 63, 103); white-space: pre; color: rgb(181, 63, 103);"/></svg>